REM DIRINDEX 1\2,1\3,1\4,1\5\6,1\5\7,1\8
REM DIRNAME cjc115,folder01,folder02,folder03,folder04,folder05,folder06,folder07
TITLE ""
FILE "157 【157】Unit9 (1777 jump at ～_1788 be burned out).mp3" MP3
  TRACK 01 AUDIO
    TITLE "0:"
    INDEX 01 00:00:00
  TRACK 02 AUDIO
    TITLE "2:cjc115_6136"
    INDEX 01 00:00:07
  TRACK 03 AUDIO
    TITLE "0:"
    INDEX 01 00:01:34
  TRACK 04 AUDIO
    TITLE "3:cjc115_6137"
    INDEX 01 00:01:36
  TRACK 05 AUDIO
    TITLE "0:"
    INDEX 01 00:03:35
  TRACK 06 AUDIO
    TITLE "4:cjc115_6138"
    INDEX 01 00:03:39
  TRACK 07 AUDIO
    TITLE "0:"
    INDEX 01 00:06:33
  TRACK 08 AUDIO
    TITLE "2:cjc115_6139"
    INDEX 01 00:07:41
  TRACK 09 AUDIO
    TITLE "0:"
    INDEX 01 00:08:62
  TRACK 10 AUDIO
    TITLE "3:cjc115_6140"
    INDEX 01 00:08:72
  TRACK 11 AUDIO
    TITLE "0:"
    INDEX 01 00:11:13
  TRACK 12 AUDIO
    TITLE "4:cjc115_6141"
    INDEX 01 00:11:23
  TRACK 13 AUDIO
    TITLE "0:"
    INDEX 01 00:15:05
  TRACK 14 AUDIO
    TITLE "2:cjc115_6142"
    INDEX 01 00:16:10
  TRACK 15 AUDIO
    TITLE "0:"
    INDEX 01 00:17:55
  TRACK 16 AUDIO
    TITLE "3:cjc115_6143"
    INDEX 01 00:17:63
  TRACK 17 AUDIO
    TITLE "0:"
    INDEX 01 00:20:30
  TRACK 18 AUDIO
    TITLE "4:cjc115_6144"
    INDEX 01 00:20:36
  TRACK 19 AUDIO
    TITLE "0:"
    INDEX 01 00:22:58
  TRACK 20 AUDIO
    TITLE "2:cjc115_6145"
    INDEX 01 00:23:67
  TRACK 21 AUDIO
    TITLE "0:"
    INDEX 01 00:25:54
  TRACK 22 AUDIO
    TITLE "3:cjc115_6146"
    INDEX 01 00:25:62
  TRACK 23 AUDIO
    TITLE "0:"
    INDEX 01 00:27:24
  TRACK 24 AUDIO
    TITLE "4:cjc115_6147"
    INDEX 01 00:27:32
  TRACK 25 AUDIO
    TITLE "0:"
    INDEX 01 00:30:08
  TRACK 26 AUDIO
    TITLE "2:cjc115_6148"
    INDEX 01 00:31:16
  TRACK 27 AUDIO
    TITLE "0:"
    INDEX 01 00:32:37
  TRACK 28 AUDIO
    TITLE "3:cjc115_6149"
    INDEX 01 00:32:47
  TRACK 29 AUDIO
    TITLE "0:"
    INDEX 01 00:35:08
  TRACK 30 AUDIO
    TITLE "4:cjc115_6150"
    INDEX 01 00:35:17
  TRACK 31 AUDIO
    TITLE "0:"
    INDEX 01 00:38:69
  TRACK 32 AUDIO
    TITLE "2:cjc115_6151"
    INDEX 01 00:40:05
  TRACK 33 AUDIO
    TITLE "0:"
    INDEX 01 00:41:18
  TRACK 34 AUDIO
    TITLE "3:cjc115_6152"
    INDEX 01 00:41:24
  TRACK 35 AUDIO
    TITLE "0:"
    INDEX 01 00:44:60
  TRACK 36 AUDIO
    TITLE "4:cjc115_6153"
    INDEX 01 00:44:63
  TRACK 37 AUDIO
    TITLE "0:"
    INDEX 01 00:48:67
  TRACK 38 AUDIO
    TITLE "2:cjc115_6154"
    INDEX 01 00:49:69
  TRACK 39 AUDIO
    TITLE "0:"
    INDEX 01 00:52:02
  TRACK 40 AUDIO
    TITLE "3:cjc115_6155"
    INDEX 01 00:52:10
  TRACK 41 AUDIO
    TITLE "0:"
    INDEX 01 00:54:68
  TRACK 42 AUDIO
    TITLE "4:cjc115_6156"
    INDEX 01 00:54:72
  TRACK 43 AUDIO
    TITLE "0:"
    INDEX 01 00:58:24
  TRACK 44 AUDIO
    TITLE "2:cjc115_6157"
    INDEX 01 00:59:30
  TRACK 45 AUDIO
    TITLE "0:"
    INDEX 01 01:00:68
  TRACK 46 AUDIO
    TITLE "3:cjc115_6158"
    INDEX 01 01:00:74
  TRACK 47 AUDIO
    TITLE "0:"
    INDEX 01 01:02:12
  TRACK 48 AUDIO
    TITLE "4:cjc115_6159"
    INDEX 01 01:02:22
  TRACK 49 AUDIO
    TITLE "0:"
    INDEX 01 01:06:47
  TRACK 50 AUDIO
    TITLE "2:cjc115_6160"
    INDEX 01 01:07:57
  TRACK 51 AUDIO
    TITLE "0:"
    INDEX 01 01:09:12
  TRACK 52 AUDIO
    TITLE "3:cjc115_6161"
    INDEX 01 01:09:18
  TRACK 53 AUDIO
    TITLE "0:"
    INDEX 01 01:11:31
  TRACK 54 AUDIO
    TITLE "4:cjc115_6162"
    INDEX 01 01:11:41
  TRACK 55 AUDIO
    TITLE "0:"
    INDEX 01 01:15:07
  TRACK 56 AUDIO
    TITLE "2:cjc115_6163"
    INDEX 01 01:16:14
  TRACK 57 AUDIO
    TITLE "0:"
    INDEX 01 01:17:45
  TRACK 58 AUDIO
    TITLE "3:cjc115_6164"
    INDEX 01 01:17:53
  TRACK 59 AUDIO
    TITLE "0:"
    INDEX 01 01:19:54
  TRACK 60 AUDIO
    TITLE "4:cjc115_6165"
    INDEX 01 01:19:62
  TRACK 61 AUDIO
    TITLE "0:"
    INDEX 01 01:22:70
  TRACK 62 AUDIO
    TITLE "2:cjc115_6166"
    INDEX 01 01:24:02
  TRACK 63 AUDIO
    TITLE "0:"
    INDEX 01 01:25:62
  TRACK 64 AUDIO
    TITLE "3:cjc115_6167"
    INDEX 01 01:25:72
  TRACK 65 AUDIO
    TITLE "0:"
    INDEX 01 01:27:50
  TRACK 66 AUDIO
    TITLE "4:cjc115_6168"
    INDEX 01 01:27:53
  TRACK 67 AUDIO
    TITLE "0:"
    INDEX 01 01:31:45
  TRACK 68 AUDIO
    TITLE "2:cjc115_6169"
    INDEX 01 01:32:53
  TRACK 69 AUDIO
    TITLE "0:"
    INDEX 01 01:34:16
  TRACK 70 AUDIO
    TITLE "3:cjc115_6170"
    INDEX 01 01:34:24
  TRACK 71 AUDIO
    TITLE "0:"
    INDEX 01 01:35:43
  TRACK 72 AUDIO
    TITLE "4:cjc115_6171"
    INDEX 01 01:35:45
  TRACK 73 AUDIO
    TITLE "0:"
    INDEX 01 01:39:45
